<svg xmlns="http://www.w3.org/2000/svg" viewBox="0 0 470.057 470.057" xml:space="preserve">
  <path style="fill: #ffd085" d="M391.48 166.504c12.089 15.126 21.758 31.576 28.905 48.991 24.785-30.691 36.874-68.803 34.348-107.936-19.37 22.126-44.192 38.99-71.931 48.815a199 199 0 0 1 8.678 10.13m-312.901-.002a199 199 0 0 1 8.677-10.128c-27.74-9.825-52.562-26.689-71.932-48.815-2.525 39.133 9.564 77.245 34.349 107.937 7.148-17.417 16.817-33.868 28.906-48.994" />
  <path style="fill: #081c1f" d="M462.419 167.799c8.09-26.183 9.764-53.235 4.973-80.404a7.5 7.5 0 0 0-13.53-2.999c-20.12 28.734-49.444 49.946-82.908 60.081-23.65-21.844-52.383-37.862-83.429-46.297v-4.44a7.5 7.5 0 0 0-5.835-7.313c-30.5-6.942-62.855-6.936-93.318-.002a7.5 7.5 0 0 0-5.836 7.312v4.442c-31.046 8.434-59.781 24.453-83.433 46.298-33.463-10.135-62.788-31.347-82.908-60.082a7.501 7.501 0 0 0-13.53 2.999c-4.791 27.169-3.117 54.221 4.973 80.404 7.269 23.522 19.742 45.539 36.186 63.953-5.195 16.72-8.167 34.183-8.815 52.108h-2.644a7.5 7.5 0 0 0-7.5 7.5v23.074c-8.729 3.096-15 11.432-15 21.21s6.271 18.114 15 21.21v24.496a7.5 7.5 0 0 0 7.5 7.5l405.327.011a7.503 7.503 0 0 0 7.5-7.5v-24.506c8.729-3.096 15-11.432 15-21.21s-6.271-18.114-15-21.21V291.36a7.5 7.5 0 0 0-7.5-7.5h-2.644c-.648-17.926-3.62-35.389-8.815-52.109 16.445-18.414 28.918-40.43 36.186-63.952m-447.094-60.24c19.37 22.126 44.192 38.99 71.932 48.815a199 199 0 0 0-8.677 10.128c-12.089 15.126-21.759 31.578-28.906 48.994-24.786-30.692-36.875-68.804-34.349-107.937m167.211 6.199-.004 117.602a7.5 7.5 0 0 0 15 0l.005-131.543c24.604-4.803 50.364-4.809 74.989.002V283.86h-74.994v-22.5a7.5 7.5 0 0 0-15 0v22.5H50.019c3.153-79.624 56.316-147.727 132.517-170.102M430.193 298.86v75l-390.327-.011V298.86zm-142.667-15V113.759c76.199 22.377 129.36 90.48 132.514 170.101zm167.207-176.301c2.525 39.133-9.563 77.244-34.348 107.936-7.147-17.415-16.816-33.865-28.905-48.991a199 199 0 0 0-8.678-10.13c27.739-9.826 52.561-26.69 71.931-48.815" />
  <path style="fill: #2eaab6" d="M182.532 283.86v-22.5a7.5 7.5 0 0 1 7.5-7.5l.001-15a7.5 7.5 0 0 1-7.501-7.5l.004-117.602c-76.2 22.375-129.364 90.478-132.517 170.102zm104.994-170.101V283.86H420.04c-3.154-79.622-56.316-147.725-132.514-170.101" />
  <path style="fill: #8beef8" d="M39.866 298.86v74.99l390.327.011V298.86zm64.564 59.284c-12.406 0-22.5-10.093-22.5-22.5s10.094-22.5 22.5-22.5 22.5 10.093 22.5 22.5-10.094 22.5-22.5 22.5m87.066 0c-12.406 0-22.5-10.093-22.5-22.5s10.094-22.5 22.5-22.5 22.5 10.093 22.5 22.5-10.093 22.5-22.5 22.5m174.131-45c12.406 0 22.5 10.093 22.5 22.5s-10.094 22.5-22.5 22.5-22.5-10.093-22.5-22.5 10.094-22.5 22.5-22.5m-64.565 22.5c0 12.407-10.094 22.5-22.5 22.5s-22.5-10.093-22.5-22.5 10.094-22.5 22.5-22.5 22.5 10.093 22.5 22.5m-103.53-74.284v22.5h74.994V99.819c-24.625-4.811-50.386-4.805-74.989-.002l-.005 131.543a7.5 7.5 0 0 1-7.499 7.499v15a7.5 7.5 0 0 1 7.499 7.501m37.497-137.364c12.406 0 22.5 10.093 22.5 22.5s-10.094 22.5-22.5 22.5-22.5-10.093-22.5-22.5 10.093-22.5 22.5-22.5m0 87.065c12.406 0 22.5 10.093 22.5 22.5s-10.094 22.5-22.5 22.5-22.5-10.093-22.5-22.5 10.093-22.5 22.5-22.5" />
  <path style="fill: #2eaab6" d="M104.43 328.144c-4.136 0-7.5 3.364-7.5 7.5s3.364 7.5 7.5 7.5 7.5-3.364 7.5-7.5-3.364-7.5-7.5-7.5" />
  <path style="fill: #081c1f" d="M104.43 313.144c-12.406 0-22.5 10.093-22.5 22.5s10.094 22.5 22.5 22.5 22.5-10.093 22.5-22.5-10.094-22.5-22.5-22.5m0 30c-4.136 0-7.5-3.364-7.5-7.5s3.364-7.5 7.5-7.5 7.5 3.364 7.5 7.5-3.364 7.5-7.5 7.5" />
  <path style="fill: #2eaab6" d="M191.496 328.144c-4.136 0-7.5 3.364-7.5 7.5s3.364 7.5 7.5 7.5 7.5-3.364 7.5-7.5-3.364-7.5-7.5-7.5" />
  <path style="fill: #081c1f" d="M191.496 313.144c-12.406 0-22.5 10.093-22.5 22.5s10.094 22.5 22.5 22.5 22.5-10.093 22.5-22.5-10.093-22.5-22.5-22.5m0 30c-4.136 0-7.5-3.364-7.5-7.5s3.364-7.5 7.5-7.5 7.5 3.364 7.5 7.5-3.364 7.5-7.5 7.5" />
  <path style="fill: #2eaab6" d="M278.562 328.144c-4.136 0-7.5 3.364-7.5 7.5s3.364 7.5 7.5 7.5 7.5-3.364 7.5-7.5-3.364-7.5-7.5-7.5" />
  <path style="fill: #081c1f" d="M256.062 335.644c0 12.407 10.094 22.5 22.5 22.5s22.5-10.093 22.5-22.5-10.094-22.5-22.5-22.5-22.5 10.093-22.5 22.5m22.5 7.5c-4.136 0-7.5-3.364-7.5-7.5s3.364-7.5 7.5-7.5 7.5 3.364 7.5 7.5-3.364 7.5-7.5 7.5" />
  <path style="fill: #2eaab6" d="M365.627 343.144c4.136 0 7.5-3.364 7.5-7.5s-3.364-7.5-7.5-7.5-7.5 3.364-7.5 7.5 3.365 7.5 7.5 7.5" />
  <path style="fill: #081c1f" d="M365.627 358.144c12.406 0 22.5-10.093 22.5-22.5s-10.094-22.5-22.5-22.5-22.5 10.093-22.5 22.5 10.094 22.5 22.5 22.5m0-30c4.136 0 7.5 3.364 7.5 7.5s-3.364 7.5-7.5 7.5-7.5-3.364-7.5-7.5 3.365-7.5 7.5-7.5" />
  <path style="fill: #2eaab6" d="M235.029 153.996c4.136 0 7.5-3.364 7.5-7.5s-3.364-7.5-7.5-7.5-7.5 3.364-7.5 7.5 3.364 7.5 7.5 7.5" />
  <path style="fill: #081c1f" d="M235.029 168.996c12.406 0 22.5-10.093 22.5-22.5s-10.094-22.5-22.5-22.5-22.5 10.093-22.5 22.5 10.093 22.5 22.5 22.5m0-30c4.136 0 7.5 3.364 7.5 7.5s-3.364 7.5-7.5 7.5-7.5-3.364-7.5-7.5 3.364-7.5 7.5-7.5" />
  <path style="fill: #2eaab6" d="M227.529 233.561c0 4.136 3.364 7.5 7.5 7.5s7.5-3.364 7.5-7.5-3.364-7.5-7.5-7.5-7.5 3.364-7.5 7.5" />
  <path style="fill: #081c1f" d="M235.029 256.061c12.406 0 22.5-10.093 22.5-22.5s-10.094-22.5-22.5-22.5-22.5 10.093-22.5 22.5 10.093 22.5 22.5 22.5m7.5-22.5c0 4.136-3.364 7.5-7.5 7.5s-7.5-3.364-7.5-7.5 3.364-7.5 7.5-7.5 7.5 3.364 7.5 7.5" />
</svg>